<mxfile host="app.diagrams.net" modified="2024-01-02T16:25:02.444Z" agent="Mozilla/5.0 (Windows NT 10.0; Win64; x64) AppleWebKit/537.36 (KHTML, like Gecko) Chrome/120.0.0.0 Safari/537.36 Edg/120.0.0.0" etag="qGRhbiv-cDjjolIrnMS7" version="22.1.16" type="github">
  <diagram name="第 1 页" id="Ml22nKOqgqZrBI-NeVgZ">
    <mxGraphModel dx="1288" dy="744" grid="1" gridSize="10" guides="1" tooltips="1" connect="1" arrows="1" fold="1" page="1" pageScale="1" pageWidth="827" pageHeight="1169" math="0" shadow="0">
      <root>
        <mxCell id="0" />
        <mxCell id="1" parent="0" />
        <mxCell id="Paea3Fyai2rHsI28GyAJ-1" value="&lt;font style=&quot;font-size: 18px;&quot;&gt;GS&lt;/font&gt;" style="rounded=0;whiteSpace=wrap;html=1;" vertex="1" parent="1">
          <mxGeometry x="150" y="140" width="70" height="40" as="geometry" />
        </mxCell>
        <mxCell id="Paea3Fyai2rHsI28GyAJ-3" style="edgeStyle=orthogonalEdgeStyle;rounded=0;orthogonalLoop=1;jettySize=auto;html=1;exitX=0.5;exitY=0;exitDx=0;exitDy=0;entryX=0.5;entryY=1;entryDx=0;entryDy=0;" edge="1" parent="1" source="Paea3Fyai2rHsI28GyAJ-2" target="Paea3Fyai2rHsI28GyAJ-1">
          <mxGeometry relative="1" as="geometry" />
        </mxCell>
        <mxCell id="Paea3Fyai2rHsI28GyAJ-4" value="&lt;font style=&quot;font-size: 18px;&quot;&gt;ISA&lt;/font&gt;" style="edgeLabel;html=1;align=center;verticalAlign=middle;resizable=0;points=[];" vertex="1" connectable="0" parent="Paea3Fyai2rHsI28GyAJ-3">
          <mxGeometry x="-0.132" y="1" relative="1" as="geometry">
            <mxPoint x="-24" as="offset" />
          </mxGeometry>
        </mxCell>
        <mxCell id="Paea3Fyai2rHsI28GyAJ-2" value="&lt;span style=&quot;font-size: 18px;&quot;&gt;g&lt;/span&gt;" style="rounded=0;whiteSpace=wrap;html=1;" vertex="1" parent="1">
          <mxGeometry x="150" y="240" width="70" height="40" as="geometry" />
        </mxCell>
        <mxCell id="Paea3Fyai2rHsI28GyAJ-7" style="edgeStyle=orthogonalEdgeStyle;rounded=0;orthogonalLoop=1;jettySize=auto;html=1;exitX=0.5;exitY=0;exitDx=0;exitDy=0;entryX=0.5;entryY=1;entryDx=0;entryDy=0;" edge="1" parent="1" source="Paea3Fyai2rHsI28GyAJ-5" target="Paea3Fyai2rHsI28GyAJ-6">
          <mxGeometry relative="1" as="geometry" />
        </mxCell>
        <mxCell id="Paea3Fyai2rHsI28GyAJ-9" value="&lt;font style=&quot;font-size: 18px;&quot;&gt;ISA&lt;/font&gt;" style="edgeLabel;html=1;align=center;verticalAlign=middle;resizable=0;points=[];" vertex="1" connectable="0" parent="Paea3Fyai2rHsI28GyAJ-7">
          <mxGeometry x="-0.067" y="-1" relative="1" as="geometry">
            <mxPoint x="-26" as="offset" />
          </mxGeometry>
        </mxCell>
        <mxCell id="Paea3Fyai2rHsI28GyAJ-5" value="&lt;span style=&quot;font-size: 18px;&quot;&gt;m&lt;/span&gt;" style="rounded=0;whiteSpace=wrap;html=1;" vertex="1" parent="1">
          <mxGeometry x="320" y="240" width="70" height="40" as="geometry" />
        </mxCell>
        <mxCell id="Paea3Fyai2rHsI28GyAJ-6" value="&lt;span style=&quot;font-size: 18px;&quot;&gt;man&lt;/span&gt;" style="rounded=0;whiteSpace=wrap;html=1;" vertex="1" parent="1">
          <mxGeometry x="320" y="140" width="70" height="40" as="geometry" />
        </mxCell>
      </root>
    </mxGraphModel>
  </diagram>
</mxfile>
